<svg xmlns="http://www.w3.org/2000/svg" width="72" height="24" fill="none"><g clip-path="url(#a)"><path fill="#EA4335" d="M30.718 12.308c0 3.33-2.606 5.786-5.805 5.786-3.198 0-5.804-2.455-5.804-5.786 0-3.355 2.606-5.787 5.804-5.787 3.199 0 5.805 2.432 5.805 5.787Zm-2.541 0c0-2.082-1.51-3.507-3.264-3.507-1.753 0-3.263 1.425-3.263 3.507 0 2.06 1.51 3.506 3.264 3.506 1.752 0 3.263-1.448 3.263-3.506Z"/><path fill="#FBBC05" d="M43.24 12.308c0 3.33-2.607 5.786-5.805 5.786-3.198 0-5.804-2.455-5.804-5.786 0-3.353 2.606-5.787 5.804-5.787 3.198 0 5.804 2.432 5.804 5.787Zm-2.542 0c0-2.082-1.51-3.507-3.263-3.507s-3.264 1.425-3.264 3.507c0 2.06 1.51 3.506 3.264 3.506 1.753 0 3.263-1.448 3.263-3.506Z"/><path fill="#4285F4" d="M55.24 6.872v10.387c0 4.273-2.52 6.019-5.5 6.019-2.804 0-4.492-1.876-5.129-3.41l2.213-.92c.393.94 1.359 2.052 2.913 2.052 1.907 0 3.09-1.176 3.09-3.391v-.832h-.09c-.568.701-1.664 1.314-3.047 1.314-2.893 0-5.543-2.52-5.543-5.762 0-3.266 2.65-5.807 5.544-5.807 1.38 0 2.475.613 3.046 1.294h.09v-.942h2.412v-.002Zm-2.234 5.457c0-2.038-1.359-3.527-3.089-3.527-1.753 0-3.221 1.49-3.221 3.527 0 2.016 1.468 3.485 3.221 3.485 1.73 0 3.09-1.469 3.09-3.485Z"/><path fill="#34A853" d="M59.218.783v16.956H56.74V.783h2.478Z"/><path fill="#EA4335" d="m68.875 14.212 1.972 1.315c-.636.942-2.17 2.564-4.82 2.564-3.288 0-5.743-2.54-5.743-5.786 0-3.44 2.476-5.786 5.458-5.786 3.002 0 4.471 2.39 4.951 3.68l.264.658-7.735 3.204c.592 1.16 1.513 1.753 2.804 1.753 1.294 0 2.192-.637 2.849-1.602Zm-6.07-2.082 5.17-2.147c-.284-.722-1.14-1.226-2.147-1.226-1.291 0-3.089 1.14-3.024 3.373Z"/><path fill="#4285F4" d="M9.728 10.803V8.348H18c.081.428.123.934.123 1.482 0 1.841-.504 4.119-2.126 5.741-1.578 1.644-3.595 2.52-6.266 2.52-4.952 0-9.115-4.033-9.115-8.984S4.779.123 9.731.123c2.739 0 4.69 1.074 6.156 2.475L14.155 4.33c-1.051-.986-2.476-1.753-4.427-1.753-3.616 0-6.443 2.914-6.443 6.53s2.827 6.53 6.443 6.53c2.345 0 3.681-.942 4.537-1.798.694-.694 1.15-1.685 1.33-3.04l-5.867.004Z"/></g><defs><clipPath id="a"><path fill="#fff" d="M.522 0h70.957v24H.522z"/></clipPath></defs></svg>